Coordinates
version=1
nRows=14
nColumns=32
inDegrees=yes

Units are S.I. units (second, meters, Newtons, ...)
If the header above contains a line with 'inDegrees', this indicates whether rotational values are in degrees (yes) or radians (no).

endheader
time	pelvis_tilt	pelvis_list	pelvis_rotation	pelvis_tx	pelvis_ty	pelvis_tz	hip_flexion_r	hip_adduction_r	hip_rotation_r	knee_angle_r	ankle_angle_r	subtalar_angle_r	mtp_angle_r	hip_flexion_l	hip_adduction_l	hip_rotation_l	knee_angle_l	ankle_angle_l	subtalar_angle_l	mtp_angle_l	lumbar_extension	lumbar_bending	lumbar_rotation	arm_flex_r	arm_add_r	arm_rot_r	elbow_flex_r	arm_flex_l	arm_add_l	arm_rot_l	elbow_flex_l
      1.85000000	    -10.69429098	     -8.19972110	    -13.07229099	     -0.96960204	      0.86859984	     -0.22288976	     17.08612796	      4.15635653	    -13.03470236	    -26.78225991	      9.96324693	     -0.60938454	      0.00000000	     50.00202678	    -18.02676173	     -7.87214795	    -44.14954073	      2.97545607	    -28.75323676	      0.00000000	     -6.31773743	     14.83054998	     20.07511010	      0.00000000	      0.00000000	      0.00000000	      0.00000000	      0.00000000	      0.00000000	      0.00000000	      0.00000000
      1.86000000	    -10.78014122	     -8.33741605	    -13.54335896	     -0.95931420	      0.86798204	     -0.22203118	     16.35473833	      4.25724236	    -12.97517194	    -26.70688674	     10.02818393	     -0.55672936	      0.00000000	     49.41600561	    -18.45578615	     -7.65229224	    -40.33594351	      2.47858166	    -28.43371089	      0.00000000	     -6.00909292	     14.48951331	     20.39370480	      0.00000000	      0.00000000	      0.00000000	      0.00000000	      0.00000000	      0.00000000	      0.00000000	      0.00000000
      1.87000000	    -10.88204090	     -8.71428254	    -14.17153667	     -0.94895648	      0.86660707	     -0.22149524	     15.86341025	      4.44628288	    -13.27886865	    -27.18659570	     10.08754222	     -0.55116454	      0.00000000	     48.89626276	    -19.25492196	     -7.43788061	    -37.05222735	      2.34522059	    -28.25726269	      0.00000000	     -5.83620540	     14.50851474	     20.37143177	      0.00000000	      0.00000000	      0.00000000	      0.00000000	      0.00000000	      0.00000000	      0.00000000	      0.00000000
      1.88000000	    -10.73069988	     -8.52518713	    -15.40963197	     -0.93773134	      0.86640130	     -0.21904996	     14.94041507	      4.52613133	    -11.75543353	    -27.09693712	     10.43333109	     -0.27885669	      0.00000000	     47.41264423	    -20.08362474	     -8.14585688	    -33.54183106	     -0.23983955	    -27.47579318	      0.00000000	     -5.57004352	     13.61748861	     21.23653142	      0.00000000	      0.00000000	      0.00000000	      0.00000000	      0.00000000	      0.00000000	      0.00000000	      0.00000000
      1.89000000	    -10.16454872	     -8.51089882	    -16.01065350	     -0.92636443	      0.86608629	     -0.21861588	     13.82994327	      4.18475026	    -11.41177261	    -27.62741251	     10.91718220	     -0.19905242	      0.00000000	     45.67421092	    -20.35930587	     -8.28307694	    -30.51350710	     -0.49500444	    -27.77168383	      0.00000000	     -5.77477049	     13.01193223	     21.35418959	      0.00000000	      0.00000000	      0.00000000	      0.00000000	      0.00000000	      0.00000000	      0.00000000	      0.00000000
      1.90000000	    -10.22264302	     -8.89610098	    -16.37909129	     -0.91494334	      0.86393731	     -0.21818193	     13.32206614	      4.33912192	    -11.50277073	    -28.33349993	     10.96227398	     -0.18252122	      0.00000000	     45.38180840	    -21.11198265	     -7.89144246	    -29.02648658	     -0.52288056	    -27.69594344	      0.00000000	     -5.24720892	     12.97091122	     21.20010132	      0.00000000	      0.00000000	      0.00000000	      0.00000000	      0.00000000	      0.00000000	      0.00000000	      0.00000000
      1.91000000	    -10.35389232	     -9.37028764	    -16.70114601	     -0.90266527	      0.86212559	     -0.21708785	     12.57673992	      4.90256683	    -10.66520987	    -28.51222090	     11.13470626	     -0.07646083	      0.00000000	     44.30908693	    -21.55821963	     -7.43806672	    -26.53513937	     -0.65177677	    -27.70283065	      0.00000000	     -4.45155762	     13.03483211	     20.85416539	      0.00000000	      0.00000000	      0.00000000	      0.00000000	      0.00000000	      0.00000000	      0.00000000	      0.00000000
      1.92000000	    -10.10156629	     -9.62994849	    -16.80916924	     -0.89130047	      0.86015530	     -0.21622345	     11.94667841	      5.07011706	     -9.87272498	    -29.35804337	     11.34920846	     -0.29475968	      0.00000000	     43.53915819	    -21.99330447	     -7.97918070	    -25.54879035	     -1.54973472	    -27.78209714	      0.00000000	     -4.13783836	     12.64457624	     20.07284605	      0.00000000	      0.00000000	      0.00000000	      0.00000000	      0.00000000	      0.00000000	      0.00000000	      0.00000000
      1.93000000	     -9.33597563	    -10.17429763	    -16.82252204	     -0.87910636	      0.85866051	     -0.21593788	     10.56662110	      5.25415221	     -9.34016487	    -30.07307261	     11.50056250	     -1.32977213	      0.00000000	     42.00169181	    -22.33443892	     -8.14690796	    -24.90112675	     -8.87200426	    -30.00007015	      0.00000000	     -4.44484390	     12.41389585	     19.97077819	      0.00000000	      0.00000000	      0.00000000	      0.00000000	      0.00000000	      0.00000000	      0.00000000	      0.00000000
      1.94000000	     -9.23660763	    -10.82455742	    -16.01596739	     -0.86669807	      0.85633861	     -0.21567255	      9.62289016	      5.84233329	     -9.04348009	    -30.41400586	     11.54917179	     -1.60912476	      0.00000000	     42.32247691	    -22.45183163	     -7.68520544	    -26.82074730	    -11.90498832	    -29.36082486	      0.00000000	     -3.73088855	     12.41743340	     18.67822283	      0.00000000	      0.00000000	      0.00000000	      0.00000000	      0.00000000	      0.00000000	      0.00000000	      0.00000000
      1.95000000	     -9.59495597	    -11.44746561	    -15.24367662	     -0.85513204	      0.85292726	     -0.21673809	      9.49202899	      6.44574035	     -8.65315944	    -31.16615223	     11.22577729	     -2.23406681	      0.00000000	     43.50076361	    -22.40131669	     -6.33304122	    -29.00662473	    -13.47034800	    -29.86198448	      0.00000000	     -2.64496635	     12.65540892	     17.49551355	      0.00000000	      0.00000000	      0.00000000	      0.00000000	      0.00000000	      0.00000000	      0.00000000	      0.00000000
      1.96000000	     -9.34084808	    -11.55366749	    -14.46286635	     -0.84324219	      0.85135184	     -0.21634734	      8.77666379	      6.52850971	     -7.83604780	    -31.85276919	     11.13403209	     -2.24989166	      0.00000000	     43.82025543	    -22.10069888	     -6.07476793	    -30.51666146	    -13.52613178	    -29.99531719	      0.00000000	     -2.06359523	     11.83749561	     17.16679689	      0.00000000	      0.00000000	      0.00000000	      0.00000000	      0.00000000	      0.00000000	      0.00000000	      0.00000000
      1.97000000	     -9.48922516	    -13.02436484	    -11.95219412	     -0.83134124	      0.84831235	     -0.21894629	      7.91376796	      7.95831777	     -8.72428705	    -31.81128881	     10.60193251	     -3.25071505	      0.00000000	     46.04756746	    -21.49336899	     -2.46292068	    -32.87906592	    -13.97933455	    -30.00007015	      0.00000000	     -1.10269344	     12.87765605	     13.89694940	      0.00000000	      0.00000000	      0.00000000	      0.00000000	      0.00000000	      0.00000000	      0.00000000	      0.00000000
      1.98000000	    -10.18130855	    -13.21308578	    -10.56496427	     -0.82011728	      0.84488548	     -0.22154679	      8.39201380	      7.98709804	     -8.99653557	    -32.62182193	      9.35056762	     -4.22408901	      0.00000000	     47.94777884	    -20.11176687	      0.56293762	    -34.97358527	    -13.78941630	    -30.00007015	      0.00000000	      0.53727008	     12.61459319	     12.55043835	      0.00000000	      0.00000000	      0.00000000	      0.00000000	      0.00000000	      0.00000000	      0.00000000	      0.00000000
